<svg id="Logo" xmlns="http://www.w3.org/2000/svg" xmlns:xlink="http://www.w3.org/1999/xlink" width="249.974" height="47.386" viewBox="0 0 249.974 47.386">
  <defs>
    <clipPath id="clip-path">
      <path id="Path_3417" data-name="Path 3417" d="M137.419,0A22.711,22.711,0,1,0,160.3,22.714,22.792,22.792,0,0,0,137.419,0Z" transform="translate(-114.545)" fill="#d1b772"/>
    </clipPath>
    <clipPath id="clip-path-2">
      <rect id="Rectangle_1588" data-name="Rectangle 1588" width="249.974" height="47.386" fill="none"/>
    </clipPath>
  </defs>
  <g id="Group_2245" data-name="Group 2245" transform="translate(26.439)">
    <g id="Group_2244" data-name="Group 2244" clip-path="url(#clip-path)">
      <rect id="Rectangle_1587" data-name="Rectangle 1587" width="45.755" height="45.421" transform="translate(0 0)" fill="#d1b772"/>
    </g>
  </g>
  <g id="Group_2247" data-name="Group 2247">
    <g id="Group_2246" data-name="Group 2246" clip-path="url(#clip-path-2)">
      <path id="Path_3418" data-name="Path 3418" d="M1.65,120.571a1.416,1.416,0,0,0,.716-.194c8.833-4.67,16.341-2.108,23.143,1.37A15.444,15.444,0,0,0,32,123.682h.375c2.842,0,5.118-1.174,7.734-2.518a53.589,53.589,0,0,1,4.956-2.321c5.189-2.032,8.742-.1,12.507,1.945,2.944,1.609,5.97,3.255,9.668,2.828a11.715,11.715,0,0,0,2.148-.48,40.756,40.756,0,0,0,5.433-2.4c2.98-1.488,6.064-3.025,9.077-3.075,5.525-.1,8.214,1.06,12.886,3.291a1.425,1.425,0,1,0,1.235-2.566h0c-4.925-2.351-8.015-3.672-14.161-3.576-3.68.068-7.058,1.76-10.328,3.382-1.318.661-2.576,1.3-3.8,1.789-.41.171-.826.325-1.227.454-3.53,1.144-6.324-.377-9.557-2.14-3.982-2.161-8.5-4.623-14.931-2.1a53.163,53.163,0,0,0-5.231,2.443c-3.374,1.737-5.534,2.842-9.072,1.773a17.749,17.749,0,0,1-2.888-1.2,35.4,35.4,0,0,0-12.494-4.133A22.84,22.84,0,0,0,.963,117.9h0a1.425,1.425,0,0,0,.687,2.674" transform="translate(-0.173 -88.309)" fill="#21395a"/>
      <path id="Path_3419" data-name="Path 3419" d="M97.911,170.3l0,0a49.24,49.24,0,0,0-5.492-2.357,24.123,24.123,0,0,0-8.811-1.263c-3.68.057-7.057,1.748-10.328,3.374-1.318.659-2.576,1.29-3.8,1.784-.41.17-.826.327-1.227.457a8.16,8.16,0,0,1-5.372-.13,23.945,23.945,0,0,1-3.144-1.447h0c-.336-.181-.689-.365-1.042-.557-3.981-2.165-8.5-4.626-14.93-2.1a53.987,53.987,0,0,0-5.231,2.439c-3.375,1.742-5.535,2.855-9.073,1.783-.154-.048-.3-.1-.463-.156a17.8,17.8,0,0,1-2.28-1,47.842,47.842,0,0,0-6.655-2.844,27.258,27.258,0,0,0-5.984-1.335,22.852,22.852,0,0,0-13.3,2.78h0l-.055.028,0,0a1.479,1.479,0,0,0,1.5,2.553v0a20.554,20.554,0,0,1,17.25-1.239,45.291,45.291,0,0,1,5.8,2.532,21.387,21.387,0,0,0,2.872,1.228,12.482,12.482,0,0,0,4.13.755c2.848,0,5.118-1.166,7.727-2.519.652-.328,1.215-.731,1.952-1.095.878-.431,1.829-.863,2.869-1.269,5.188-2.032,8.742-.1,12.507,1.954a30.755,30.755,0,0,0,4.752,2.232,10.83,10.83,0,0,0,7.2.155,41.392,41.392,0,0,0,5.428-2.4c2.98-1.484,6.069-3.028,9.086-3.075a21.412,21.412,0,0,1,7.834,1.113c1.392.484,4.4,1.9,4.949,2.158a1.435,1.435,0,1,0,1.334-2.539" transform="translate(0 -128.2)" fill="#21395a"/>
      <path id="Path_3420" data-name="Path 3420" d="M98.129,144.733c-4.887-2.332-7.968-3.638-14.1-3.535-3.68.057-7.058,1.746-10.328,3.377a38.7,38.7,0,0,1-5.029,2.235,8.175,8.175,0,0,1-3.769.373c-.025.032.057.042,0,0a19.141,19.141,0,0,1-5.788-2.41c-3.982-2.167-8.5-4.631-14.931-2.1a54.461,54.461,0,0,0-5.231,2.443c-3.374,1.737-5.534,2.851-9.072,1.78A18.764,18.764,0,0,1,27,145.686,35.489,35.489,0,0,0,14.5,141.551a22.771,22.771,0,0,0-13.156,2.71,1.425,1.425,0,1,0,1.15,2.606l0,0c8.854-4.709,16.376-2.136,23.191,1.349a15.348,15.348,0,0,0,6.487,1.925c.127,0,.251.011.375.011,2.842,0,5.118-1.174,7.734-2.521a53.452,53.452,0,0,1,4.956-2.322c5.189-2.033,8.742-.1,12.507,1.949,2.944,1.6,5.97,3.257,9.668,2.823a11.254,11.254,0,0,0,2.148-.475A41.691,41.691,0,0,0,75,147.21c2.98-1.489,6.063-3.026,9.077-3.078,5.525-.1,8.214,1.065,12.887,3.3h0a1.471,1.471,0,1,0,1.169-2.7" transform="translate(-0.352 -108.603)" fill="#21395a"/>
      <path id="Path_3421" data-name="Path 3421" d="M522.555,32.2,507.187,52.352h14.545v2.3H500.07V53.614L514.8,34.3H501.112V32.2Z" transform="translate(-384.646 -24.77)" fill="#21395a"/>
      <path id="Path_3422" data-name="Path 3422" d="M625.69,32.2h5.434V46.619a7.49,7.49,0,0,0,.393,2.458,6.085,6.085,0,0,0,1.134,2,5.273,5.273,0,0,0,1.793,1.354,5.955,5.955,0,0,0,4.739,0,5.28,5.28,0,0,0,1.793-1.354,6.088,6.088,0,0,0,1.134-2,7.493,7.493,0,0,0,.393-2.458V32.2h3.421V46.619a9.242,9.242,0,0,1-.585,3.293,7.174,7.174,0,0,1-1.83,2.718,8.829,8.829,0,0,1-3.183,1.846,14.215,14.215,0,0,1-4.665.677,12.55,12.55,0,0,1-4.309-.677,9.128,9.128,0,0,1-3.119-1.846,7.631,7.631,0,0,1-1.9-2.727,8.646,8.646,0,0,1-.641-3.321Z" transform="translate(-481.272 -24.77)" fill="#21395a"/>
      <path id="Path_3423" data-name="Path 3423" d="M751.624,30.032,762,52.983h-5.562l-2.763-6.141h-8.6l-2.909,6.141h-3.7l10.813-22.951ZM746.08,44.745h6.678l-3.275-7.255Z" transform="translate(-568.02 -23.1)" fill="#21395a"/>
      <path id="Path_3424" data-name="Path 3424" d="M868.529,32.2h3.458l12.624,14.286V32.2h3.421v22.8h-2.36l-13.7-15.771V54.653h-3.44Z" transform="translate(-668.06 -24.77)" fill="#21395a"/>
      <path id="Path_3425" data-name="Path 3425" d="M994.226,30.032,1004.6,52.983h-5.562l-2.763-6.141h-8.6l-2.909,6.141h-3.7l10.813-22.951Zm-5.544,14.713h6.678l-3.275-7.255Z" transform="translate(-754.625 -23.1)" fill="#21395a"/>
      <path id="Path_3426" data-name="Path 3426" d="M566.687,148.755H569.1a3.386,3.386,0,0,1,.873.106,2.217,2.217,0,0,1,.684.3,1.459,1.459,0,0,1,.444.465,1.157,1.157,0,0,1,.159.6,1.751,1.751,0,0,1-.05.436.993.993,0,0,1-.177.359,1.518,1.518,0,0,1-.336.311,3.754,3.754,0,0,1-.528.3v.02a2.124,2.124,0,0,1,.576.172,1.5,1.5,0,0,1,.442.31,1.325,1.325,0,0,1,.283.437,1.475,1.475,0,0,1,.1.55,1.387,1.387,0,0,1-.149.633,1.535,1.535,0,0,1-.421.513,2.08,2.08,0,0,1-.659.343,2.753,2.753,0,0,1-.861.126h-2.787Zm1,2.691h1.277a1.566,1.566,0,0,0,.538-.086,1.153,1.153,0,0,0,.4-.237,1,1,0,0,0,.245-.358,1.2,1.2,0,0,0,.083-.449,1.134,1.134,0,0,0-.1-.478.929.929,0,0,0-.308-.366,1.571,1.571,0,0,0-.533-.235,3.135,3.135,0,0,0-.772-.083h-.828Zm0,2.848h1.086a3.055,3.055,0,0,0,.76-.083,1.584,1.584,0,0,0,.53-.235.959.959,0,0,0,.31-.361,1.064,1.064,0,0,0,.1-.467,1.481,1.481,0,0,0-.091-.525,1.035,1.035,0,0,0-.3-.421,1.462,1.462,0,0,0-.535-.283,2.74,2.74,0,0,0-.81-.1h-1.055Z" transform="translate(-435.887 -114.42)" fill="#21395a"/>
      <path id="Path_3427" data-name="Path 3427" d="M610.821,148.755v.384h-3.15v2.141h2.105v.384h-2.105v2.686h3.15v.384h-4.155v-5.978Z" transform="translate(-466.639 -114.42)" fill="#21395a"/>
      <path id="Path_3428" data-name="Path 3428" d="M644.109,148.163l2.812,6.114H645.9l-.914-1.994h-2.56l-.945,1.994h-.5l2.883-6.114Zm-1.5,3.731h2.2l-1.086-2.363Z" transform="translate(-493.032 -113.965)" fill="#21395a"/>
      <path id="Path_3429" data-name="Path 3429" d="M684.059,151.31a3.194,3.194,0,0,0,.187,1.128,2.423,2.423,0,0,0,.518.841,2.258,2.258,0,0,0,.783.528,2.575,2.575,0,0,0,.982.184,1.57,1.57,0,0,0,.606-.121,2.28,2.28,0,0,0,.543-.318,2.877,2.877,0,0,0,.775-.944l.419.273a3.7,3.7,0,0,1-.434.581,2.926,2.926,0,0,1-.581.49,2.991,2.991,0,0,1-.745.341,3.145,3.145,0,0,1-.932.129,3.522,3.522,0,0,1-1.35-.25,3.2,3.2,0,0,1-1.04-.674,3,3,0,0,1-.669-.99,3.094,3.094,0,0,1,.686-3.4,3.273,3.273,0,0,1,1.055-.687,3.547,3.547,0,0,1,1.369-.255,2.845,2.845,0,0,1,.876.129,3.071,3.071,0,0,1,1.323.83,3.468,3.468,0,0,1,.442.58l-.434.293a2.961,2.961,0,0,0-.838-1.065,1.765,1.765,0,0,0-1.065-.338,2.521,2.521,0,0,0-.972.187,2.252,2.252,0,0,0-.785.54,2.565,2.565,0,0,0-.525.856,3.156,3.156,0,0,0-.192,1.134" transform="translate(-525.264 -113.966)" fill="#21395a"/>
      <path id="Path_3430" data-name="Path 3430" d="M729.884,151.865v2.868h-1v-5.978h1v2.726h3v-2.726h1v5.978h-1v-2.868Z" transform="translate(-560.643 -114.42)" fill="#21395a"/>
      <path id="Path_3431" data-name="Path 3431" d="M797.551,148.755h2.065a3.466,3.466,0,0,1,.947.116,2.037,2.037,0,0,1,.679.323,1.337,1.337,0,0,1,.409.495,1.442,1.442,0,0,1,.136.626,1.284,1.284,0,0,1-.106.52,1.418,1.418,0,0,1-.3.437,1.939,1.939,0,0,1-.464.338,2.452,2.452,0,0,1-.593.22l2.176,2.9h-1.166l-2.075-2.812h-.7v2.812h-1Zm1,2.868h.575a2.119,2.119,0,0,0,.626-.089,1.486,1.486,0,0,0,.5-.255,1.186,1.186,0,0,0,.328-.4,1.168,1.168,0,0,0,.119-.53,1.255,1.255,0,0,0-.093-.49,1.153,1.153,0,0,0-.26-.384,1.183,1.183,0,0,0-.4-.252,1.388,1.388,0,0,0-.51-.091h-.884Z" transform="translate(-613.465 -114.42)" fill="#21395a"/>
      <path id="Path_3432" data-name="Path 3432" d="M841.05,148.755v.384H837.9v2.141h2.106v.384H837.9v2.686h3.15v.384H836.9v-5.978Z" transform="translate(-643.727 -114.42)" fill="#21395a"/>
      <path id="Path_3433" data-name="Path 3433" d="M874.166,154.036a1.609,1.609,0,0,0,.439-.061,1.252,1.252,0,0,0,.386-.179.943.943,0,0,0,.273-.293.771.771,0,0,0,.1-.4.867.867,0,0,0-.141-.487,1.669,1.669,0,0,0-.371-.394,3.57,3.57,0,0,0-.525-.336q-.3-.156-.606-.315t-.606-.334a3.032,3.032,0,0,1-.525-.386,1.805,1.805,0,0,1-.371-.475,1.258,1.258,0,0,1-.141-.606,1.561,1.561,0,0,1,.129-.636,1.432,1.432,0,0,1,.378-.51,1.779,1.779,0,0,1,.613-.338,2.632,2.632,0,0,1,.833-.121,2.246,2.246,0,0,1,1.34.356,1.971,1.971,0,0,1,.709,1.028l-.515.237a2.4,2.4,0,0,0-.23-.505,1.55,1.55,0,0,0-.333-.389,1.435,1.435,0,0,0-.447-.25,1.727,1.727,0,0,0-.57-.088,1.426,1.426,0,0,0-.495.078,1.065,1.065,0,0,0-.353.207.847.847,0,0,0-.212.29.812.812,0,0,0-.071.328.709.709,0,0,0,.144.432,1.755,1.755,0,0,0,.384.368,4.62,4.62,0,0,0,.543.336l.619.328q.315.166.618.348a3.553,3.553,0,0,1,.543.4,1.859,1.859,0,0,1,.384.47,1.136,1.136,0,0,1,.144.568,1.649,1.649,0,0,1-.136.666,1.517,1.517,0,0,1-.4.545,1.974,1.974,0,0,1-.671.369,2.92,2.92,0,0,1-.934.136,2.844,2.844,0,0,1-.77-.1,1.963,1.963,0,0,1-.6-.275,1.794,1.794,0,0,1-.442-.439,2.474,2.474,0,0,1-.305-.593l.54-.222a1.769,1.769,0,0,0,.624.916,1.671,1.671,0,0,0,1.027.325" transform="translate(-670.71 -113.966)" fill="#21395a"/>
      <path id="Path_3434" data-name="Path 3434" d="M912.188,154.419a3.42,3.42,0,0,1-.888-.113,3.368,3.368,0,0,1-.79-.321,3.324,3.324,0,0,1-.666-.495,3.007,3.007,0,0,1-.51-.641,3.229,3.229,0,0,1-.325-.757,3.014,3.014,0,0,1-.116-.838,2.889,2.889,0,0,1,.116-.823,3.078,3.078,0,0,1,.325-.737,3.016,3.016,0,0,1,.51-.626,3.214,3.214,0,0,1,.666-.482,3.491,3.491,0,0,1,1.679-.421,3.431,3.431,0,0,1,1.3.242,3.278,3.278,0,0,1,1.043.661,3.1,3.1,0,0,1,.7.982,2.884,2.884,0,0,1,.255,1.2,3.023,3.023,0,0,1-.116.838,3.226,3.226,0,0,1-.326.757,3.052,3.052,0,0,1-.507.641,3.273,3.273,0,0,1-.664.495,3.37,3.37,0,0,1-.79.321,3.422,3.422,0,0,1-.889.113m0-.3a1.858,1.858,0,0,0,.9-.215,1.938,1.938,0,0,0,.664-.6,2.808,2.808,0,0,0,.409-.909,4.477,4.477,0,0,0,.139-1.146,4.306,4.306,0,0,0-.139-1.128,2.671,2.671,0,0,0-.409-.884,1.859,1.859,0,0,0-1.568-.785,1.962,1.962,0,0,0-.921.207,1.89,1.89,0,0,0-.664.578,2.627,2.627,0,0,0-.4.884,4.451,4.451,0,0,0-.134,1.128,4.628,4.628,0,0,0,.134,1.146,2.763,2.763,0,0,0,.4.909,1.844,1.844,0,0,0,1.585.813" transform="translate(-699.106 -113.966)" fill="#21395a"/>
      <path id="Path_3435" data-name="Path 3435" d="M957.489,148.755h2.065a3.465,3.465,0,0,1,.947.116,2.037,2.037,0,0,1,.679.323,1.338,1.338,0,0,1,.409.495,1.443,1.443,0,0,1,.136.626,1.286,1.286,0,0,1-.106.52,1.425,1.425,0,0,1-.3.437,1.94,1.94,0,0,1-.464.338,2.451,2.451,0,0,1-.593.22l2.176,2.9h-1.166l-2.075-2.812h-.7v2.812h-1Zm1,2.868h.576a2.117,2.117,0,0,0,.626-.089,1.488,1.488,0,0,0,.5-.255,1.186,1.186,0,0,0,.328-.4,1.168,1.168,0,0,0,.119-.53,1.254,1.254,0,0,0-.093-.49,1.154,1.154,0,0,0-.26-.384,1.183,1.183,0,0,0-.4-.252,1.386,1.386,0,0,0-.51-.091h-.884Z" transform="translate(-736.487 -114.42)" fill="#21395a"/>
      <path id="Path_3436" data-name="Path 3436" d="M998.016,148.755v.384h-2.166v5.594h-1v-5.594h-2.166v-.384Z" transform="translate(-763.554 -114.42)" fill="#21395a"/>
    </g>
  </g>
</svg>
